<?xml version="1.0" encoding="UTF-8" standalone="no"?>
<svg
   xmlns:dc="http://purl.org/dc/elements/1.1/"
   xmlns:cc="http://creativecommons.org/ns#"
   xmlns:rdf="http://www.w3.org/1999/02/22-rdf-syntax-ns#"
   xmlns:svg="http://www.w3.org/2000/svg"
   xmlns="http://www.w3.org/2000/svg"
   viewBox="0 0 531.59998 354.45001"
   height="141.6"
   width="212.4"
   xml:space="preserve"
   version="1.1"
   id="svg2">
   <defs
     id="defs6"><clipPath
       id="clipPath16"
       clipPathUnits="userSpaceOnUse"><path
         style="clip-rule:evenodd"
         id="path18"
         d="m 0,6.1035e-5 425.28,0 0,283.559998965 -425.28,0 L 0,6.1035e-5 Z" /></clipPath></defs><g
     transform="matrix(1.25,0,0,-1.25,0,354.45)"
     id="g10"><g
       id="g12"><g
         clip-path="url(#clipPath16)"
         id="g14"><path
           id="path20"
           style="fill:#ffffff;fill-opacity:1;fill-rule:evenodd;stroke:none"
           d="m 0,3.0518e-5 425.28,0 0,283.559999482 -425.28,0 L 0,3.0518e-5 Z" /></g></g><path
       id="path22"
       style="fill:#ffffff;fill-opacity:1;fill-rule:evenodd;stroke:none"
       d="m 31.2,258.62 c 0,5.96 4.825,10.78 10.776,10.78 l 341.324,0 c 5.96,0 10.78,-4.82 10.78,-10.78 l 0,-210.884 c 0,-5.951 -4.82,-10.776 -10.78,-10.776 l -341.324,0 C 36.025,36.96 31.2,41.785 31.2,47.736 l 0,210.884 z" /><path
       id="path24"
       style="fill:none;stroke:#a5a5a5;stroke-width:5.51999998;stroke-linecap:butt;stroke-linejoin:miter;stroke-miterlimit:10;stroke-dasharray:none;stroke-opacity:1"
       d="m 31.2,258.62 c 0,5.96 4.825,10.78 10.776,10.78 l 341.324,0 c 5.96,0 10.78,-4.82 10.78,-10.78 l 0,-210.884 c 0,-5.951 -4.82,-10.776 -10.78,-10.776 l -341.324,0 C 36.025,36.96 31.2,41.785 31.2,47.736 l 0,210.884 z" /><path
       id="path26"
       style="fill:#4472c4;fill-opacity:1;fill-rule:evenodd;stroke:none"
       d="m 310.2,48.24 69.72,0 0,164.88 -69.72,0 0,-164.88 z" /><path
       id="path28"
       style="fill:none;stroke:#2f528f;stroke-width:0.95999998;stroke-linecap:butt;stroke-linejoin:miter;stroke-miterlimit:10;stroke-dasharray:none;stroke-opacity:1"
       d="m 310.2,48.24 69.72,0 0,164.88 -69.72,0 0,-164.88 z" /><path
       id="path30"
       style="fill:#4472c4;fill-opacity:1;fill-rule:evenodd;stroke:none"
       d="m 45.36,237.12 153.36,0 0,20.88 -153.36,0 0,-20.88 z" /><path
       id="path32"
       style="fill:none;stroke:#2f528f;stroke-width:0.95999998;stroke-linecap:butt;stroke-linejoin:miter;stroke-miterlimit:10;stroke-dasharray:none;stroke-opacity:1"
       d="m 45.36,237.12 153.36,0 0,20.88 -153.36,0 0,-20.88 z" /><path
       id="path34"
       style="fill:#4472c4;fill-opacity:1;fill-rule:evenodd;stroke:none"
       d="m 204.24,237.12 100.32,0 0,20.88 -100.32,0 0,-20.88 z" /><path
       id="path36"
       style="fill:none;stroke:#2f528f;stroke-width:0.95999998;stroke-linecap:butt;stroke-linejoin:miter;stroke-miterlimit:10;stroke-dasharray:none;stroke-opacity:1"
       d="m 204.24,237.12 100.32,0 0,20.88 -100.32,0 0,-20.88 z" /><path
       id="path38"
       style="fill:#a5a5a5;fill-opacity:1;fill-rule:evenodd;stroke:none"
       d="m 45.96,174.12 124.8,0 0,54 -124.8,0 0,-54 z" /><path
       id="path40"
       style="fill:none;stroke:#787878;stroke-width:0.95999998;stroke-linecap:butt;stroke-linejoin:miter;stroke-miterlimit:10;stroke-dasharray:none;stroke-opacity:1"
       d="m 45.96,174.12 124.8,0 0,54 -124.8,0 0,-54 z" /><path
       id="path42"
       style="fill:#a5a5a5;fill-opacity:1;fill-rule:evenodd;stroke:none"
       d="m 179.76,174.12 124.8,0 0,54 -124.8,0 0,-54 z" /><path
       id="path44"
       style="fill:none;stroke:#787878;stroke-width:0.95999998;stroke-linecap:butt;stroke-linejoin:miter;stroke-miterlimit:10;stroke-dasharray:none;stroke-opacity:1"
       d="m 179.76,174.12 124.8,0 0,54 -124.8,0 0,-54 z" /><path
       id="path46"
       style="fill:#a5a5a5;fill-opacity:1;fill-rule:evenodd;stroke:none"
       d="m 45.36,111.24 124.92,0 0,53.88 -124.92,0 0,-53.88 z" /><path
       id="path48"
       style="fill:none;stroke:#787878;stroke-width:0.95999998;stroke-linecap:butt;stroke-linejoin:miter;stroke-miterlimit:10;stroke-dasharray:none;stroke-opacity:1"
       d="m 45.36,111.24 124.92,0 0,53.88 -124.92,0 0,-53.88 z" /><path
       id="path50"
       style="fill:#a5a5a5;fill-opacity:1;fill-rule:evenodd;stroke:none"
       d="m 179.76,111.24 124.8,0 0,53.88 -124.8,0 0,-53.88 z" /><path
       id="path52"
       style="fill:none;stroke:#787878;stroke-width:0.95999998;stroke-linecap:butt;stroke-linejoin:miter;stroke-miterlimit:10;stroke-dasharray:none;stroke-opacity:1"
       d="m 179.76,111.24 124.8,0 0,53.88 -124.8,0 0,-53.88 z" /><path
       id="path54"
       style="fill:#a5a5a5;fill-opacity:1;fill-rule:evenodd;stroke:none"
       d="m 45.36,48.24 124.92,0 0,54 -124.92,0 0,-54 z" /><path
       id="path56"
       style="fill:none;stroke:#787878;stroke-width:0.95999998;stroke-linecap:butt;stroke-linejoin:miter;stroke-miterlimit:10;stroke-dasharray:none;stroke-opacity:1"
       d="m 45.36,48.24 124.92,0 0,54 -124.92,0 0,-54 z" /><path
       id="path58"
       style="fill:#a5a5a5;fill-opacity:1;fill-rule:evenodd;stroke:none"
       d="m 179.76,48.48 124.8,0 0,53.88 -124.8,0 0,-53.88 z" /><path
       id="path60"
       style="fill:none;stroke:#787878;stroke-width:0.95999998;stroke-linecap:butt;stroke-linejoin:miter;stroke-miterlimit:10;stroke-dasharray:none;stroke-opacity:1"
       d="m 179.76,48.48 124.8,0 0,53.88 -124.8,0 0,-53.88 z" /><path
       id="path62"
       style="fill:#4472c4;fill-opacity:1;fill-rule:evenodd;stroke:none"
       d="m 310.2,219.24 69.72,0 0,38.76 -69.72,0 0,-38.76 z" /><path
       id="path64"
       style="fill:none;stroke:#2f528f;stroke-width:0.95999998;stroke-linecap:butt;stroke-linejoin:miter;stroke-miterlimit:10;stroke-dasharray:none;stroke-opacity:1"
       d="m 310.2,219.24 69.72,0 0,38.76 -69.72,0 0,-38.76 z" /><path
       id="path66"
       style="fill:#a5a5a5;fill-opacity:1;fill-rule:evenodd;stroke:none"
       d="m 178.92,36.259 c 0,0.387 0.31,0.701 0.7,0.701 l 66.04,0 c 0.39,0 0.7,-0.314 0.7,-0.701 l 0,-13.718 c 0,-0.387 -0.31,-0.701 -0.7,-0.701 l -66.04,0 c -0.39,0 -0.7,0.314 -0.7,0.701 l 0,13.718 z" /><path
       id="path68"
       style="fill:none;stroke:#a5a5a5;stroke-width:5.51999998;stroke-linecap:butt;stroke-linejoin:miter;stroke-miterlimit:10;stroke-dasharray:none;stroke-opacity:1"
       d="m 178.92,36.259 c 0,0.387 0.31,0.701 0.7,0.701 l 66.04,0 c 0.39,0 0.7,-0.314 0.7,-0.701 l 0,-13.718 c 0,-0.387 -0.31,-0.701 -0.7,-0.701 l -66.04,0 c -0.39,0 -0.7,0.314 -0.7,0.701 l 0,13.718 z" /><path
       id="path70"
       style="fill:#70ad47;fill-opacity:1;fill-rule:evenodd;stroke:none"
       d="m 161.64,19.659 c 0,0.144 0.12,0.261 0.26,0.261 l 101.48,0 c 0.14,0 0.26,-0.117 0.26,-0.261 l 0,-5.118 c 0,-0.144 -0.12,-0.261 -0.26,-0.261 l -101.48,0 c -0.14,0 -0.26,0.117 -0.26,0.261 l 0,5.118 z" /><path
       id="path72"
       style="fill:none;stroke:#a5a5a5;stroke-width:5.51999998;stroke-linecap:butt;stroke-linejoin:miter;stroke-miterlimit:10;stroke-dasharray:none;stroke-opacity:1"
       d="m 161.64,19.659 c 0,0.144 0.12,0.261 0.26,0.261 l 101.48,0 c 0.14,0 0.26,-0.117 0.26,-0.261 l 0,-5.118 c 0,-0.144 -0.12,-0.261 -0.26,-0.261 l -101.48,0 c -0.14,0 -0.26,0.117 -0.26,0.261 l 0,5.118 z" /></g></svg>